<mxfile host="app.diagrams.net" agent="Mozilla/5.0 (Windows NT 10.0; Win64; x64) AppleWebKit/537.36 (KHTML, like Gecko) Chrome/134.0.0.0 Safari/537.36" version="26.1.1">
  <diagram name="Page-1" id="QskADo8M-4TU2upb7S_2">
    <mxGraphModel dx="2580" dy="2144" grid="1" gridSize="10" guides="1" tooltips="1" connect="1" arrows="1" fold="1" page="1" pageScale="1" pageWidth="850" pageHeight="1100" math="0" shadow="0">
      <root>
        <mxCell id="0" />
        <mxCell id="1" parent="0" />
        <mxCell id="JZUVJAfpR1LHdVZTG2FE-30" value="" style="rounded=1;whiteSpace=wrap;html=1;" vertex="1" parent="1">
          <mxGeometry x="345" y="-1030" width="130" height="60" as="geometry" />
        </mxCell>
        <mxCell id="JZUVJAfpR1LHdVZTG2FE-31" value="&lt;b&gt;&lt;font style=&quot;font-size: 14px;&quot;&gt;user interface&lt;/font&gt;&lt;/b&gt;&lt;div&gt;(Web and mobile&lt;/div&gt;" style="text;html=1;align=center;verticalAlign=middle;whiteSpace=wrap;rounded=0;" vertex="1" parent="1">
          <mxGeometry x="360" y="-1050" width="110" height="95" as="geometry" />
        </mxCell>
        <mxCell id="JZUVJAfpR1LHdVZTG2FE-32" style="edgeStyle=orthogonalEdgeStyle;rounded=0;orthogonalLoop=1;jettySize=auto;html=1;exitX=0.5;exitY=1;exitDx=0;exitDy=0;" edge="1" parent="1" source="JZUVJAfpR1LHdVZTG2FE-33">
          <mxGeometry relative="1" as="geometry">
            <mxPoint x="410" y="-815" as="targetPoint" />
          </mxGeometry>
        </mxCell>
        <mxCell id="JZUVJAfpR1LHdVZTG2FE-33" value="" style="rounded=1;whiteSpace=wrap;html=1;" vertex="1" parent="1">
          <mxGeometry x="350" y="-920" width="120" height="60" as="geometry" />
        </mxCell>
        <mxCell id="JZUVJAfpR1LHdVZTG2FE-34" value="&lt;font style=&quot;font-size: 14px;&quot;&gt;&lt;b&gt;API Gateway Services&lt;/b&gt;&lt;/font&gt;" style="text;html=1;align=center;verticalAlign=middle;whiteSpace=wrap;rounded=0;" vertex="1" parent="1">
          <mxGeometry x="350" y="-905" width="120" height="30" as="geometry" />
        </mxCell>
        <mxCell id="JZUVJAfpR1LHdVZTG2FE-35" value="" style="rounded=1;whiteSpace=wrap;html=1;" vertex="1" parent="1">
          <mxGeometry x="20" y="-755" width="120" height="60" as="geometry" />
        </mxCell>
        <mxCell id="JZUVJAfpR1LHdVZTG2FE-36" value="" style="rounded=1;whiteSpace=wrap;html=1;" vertex="1" parent="1">
          <mxGeometry x="260" y="-755" width="120" height="60" as="geometry" />
        </mxCell>
        <mxCell id="JZUVJAfpR1LHdVZTG2FE-37" value="" style="rounded=1;whiteSpace=wrap;html=1;" vertex="1" parent="1">
          <mxGeometry x="500" y="-755" width="120" height="60" as="geometry" />
        </mxCell>
        <mxCell id="JZUVJAfpR1LHdVZTG2FE-38" value="" style="rounded=1;whiteSpace=wrap;html=1;" vertex="1" parent="1">
          <mxGeometry x="710" y="-755" width="120" height="60" as="geometry" />
        </mxCell>
        <mxCell id="JZUVJAfpR1LHdVZTG2FE-39" value="&lt;font style=&quot;font-size: 14px;&quot;&gt;&lt;b&gt;User &lt;/b&gt;&lt;/font&gt;&lt;font style=&quot;font-size: 14px;&quot;&gt;&lt;b&gt;Services&lt;/b&gt;&lt;/font&gt;&lt;div&gt;&lt;font style=&quot;font-size: 14px;&quot;&gt;(Auth,Profile)&lt;/font&gt;&lt;/div&gt;" style="text;html=1;align=center;verticalAlign=middle;whiteSpace=wrap;rounded=0;" vertex="1" parent="1">
          <mxGeometry x="30" y="-740" width="100" height="30" as="geometry" />
        </mxCell>
        <mxCell id="JZUVJAfpR1LHdVZTG2FE-40" value="&lt;font style=&quot;font-size: 14px;&quot;&gt;&lt;b style=&quot;&quot;&gt;Auction Service&lt;/b&gt;&lt;/font&gt;&lt;div&gt;&lt;font style=&quot;font-size: 14px;&quot;&gt;(Create,Manage Bids)&lt;/font&gt;&lt;/div&gt;" style="text;html=1;align=center;verticalAlign=middle;whiteSpace=wrap;rounded=0;" vertex="1" parent="1">
          <mxGeometry x="260" y="-740" width="120" height="30" as="geometry" />
        </mxCell>
        <mxCell id="JZUVJAfpR1LHdVZTG2FE-41" value="&lt;font style=&quot;&quot;&gt;&lt;b&gt;&lt;span style=&quot;font-size: 14px;&quot;&gt;Payment &lt;/span&gt;&lt;font style=&quot;font-size: 14px;&quot;&gt;Services&lt;/font&gt;&lt;/b&gt;&lt;/font&gt;&lt;div&gt;&lt;font size=&quot;3&quot;&gt;(Transactions)&lt;/font&gt;&lt;/div&gt;" style="text;html=1;align=center;verticalAlign=middle;whiteSpace=wrap;rounded=0;" vertex="1" parent="1">
          <mxGeometry x="495" y="-755" width="130" height="60" as="geometry" />
        </mxCell>
        <mxCell id="JZUVJAfpR1LHdVZTG2FE-42" value="&lt;font style=&quot;font-size: 14px;&quot;&gt;&lt;b&gt;Notification services&lt;/b&gt;&lt;/font&gt;&lt;div&gt;&lt;font style=&quot;font-size: 14px;&quot;&gt;(Email,SMS)&lt;/font&gt;&lt;/div&gt;" style="text;html=1;align=center;verticalAlign=middle;whiteSpace=wrap;rounded=0;" vertex="1" parent="1">
          <mxGeometry x="705" y="-735" width="130" height="25" as="geometry" />
        </mxCell>
        <mxCell id="JZUVJAfpR1LHdVZTG2FE-43" value="" style="endArrow=none;html=1;rounded=0;" edge="1" parent="1">
          <mxGeometry width="50" height="50" relative="1" as="geometry">
            <mxPoint x="90" y="-815" as="sourcePoint" />
            <mxPoint x="760" y="-815" as="targetPoint" />
          </mxGeometry>
        </mxCell>
        <mxCell id="JZUVJAfpR1LHdVZTG2FE-44" value="" style="endArrow=classic;html=1;rounded=0;entryX=0.417;entryY=0;entryDx=0;entryDy=0;entryPerimeter=0;" edge="1" parent="1" target="JZUVJAfpR1LHdVZTG2FE-36">
          <mxGeometry width="50" height="50" relative="1" as="geometry">
            <mxPoint x="310" y="-815" as="sourcePoint" />
            <mxPoint x="440" y="-795" as="targetPoint" />
            <Array as="points">
              <mxPoint x="310" y="-785" />
            </Array>
          </mxGeometry>
        </mxCell>
        <mxCell id="JZUVJAfpR1LHdVZTG2FE-45" value="" style="endArrow=classic;html=1;rounded=0;entryX=0.417;entryY=0;entryDx=0;entryDy=0;entryPerimeter=0;" edge="1" parent="1">
          <mxGeometry width="50" height="50" relative="1" as="geometry">
            <mxPoint x="89.5" y="-815" as="sourcePoint" />
            <mxPoint x="89.5" y="-755" as="targetPoint" />
            <Array as="points" />
          </mxGeometry>
        </mxCell>
        <mxCell id="JZUVJAfpR1LHdVZTG2FE-46" value="" style="endArrow=classic;html=1;rounded=0;" edge="1" parent="1">
          <mxGeometry width="50" height="50" relative="1" as="geometry">
            <mxPoint x="760" y="-815" as="sourcePoint" />
            <mxPoint x="760" y="-755" as="targetPoint" />
          </mxGeometry>
        </mxCell>
        <mxCell id="JZUVJAfpR1LHdVZTG2FE-47" value="" style="endArrow=classic;html=1;rounded=0;entryX=0.426;entryY=-0.02;entryDx=0;entryDy=0;entryPerimeter=0;" edge="1" parent="1" target="JZUVJAfpR1LHdVZTG2FE-41">
          <mxGeometry width="50" height="50" relative="1" as="geometry">
            <mxPoint x="550" y="-815" as="sourcePoint" />
            <mxPoint x="440" y="-795" as="targetPoint" />
          </mxGeometry>
        </mxCell>
        <mxCell id="JZUVJAfpR1LHdVZTG2FE-48" value="" style="endArrow=classic;html=1;rounded=0;entryX=0.5;entryY=0;entryDx=0;entryDy=0;" edge="1" parent="1" target="JZUVJAfpR1LHdVZTG2FE-33">
          <mxGeometry width="50" height="50" relative="1" as="geometry">
            <mxPoint x="410" y="-965" as="sourcePoint" />
            <mxPoint x="440" y="-795" as="targetPoint" />
          </mxGeometry>
        </mxCell>
        <mxCell id="JZUVJAfpR1LHdVZTG2FE-49" value="" style="rounded=1;whiteSpace=wrap;html=1;" vertex="1" parent="1">
          <mxGeometry x="10" y="-610" width="120" height="60" as="geometry" />
        </mxCell>
        <mxCell id="JZUVJAfpR1LHdVZTG2FE-50" value="" style="rounded=1;whiteSpace=wrap;html=1;" vertex="1" parent="1">
          <mxGeometry x="250" y="-610" width="120" height="60" as="geometry" />
        </mxCell>
        <mxCell id="JZUVJAfpR1LHdVZTG2FE-51" value="" style="rounded=1;whiteSpace=wrap;html=1;" vertex="1" parent="1">
          <mxGeometry x="505" y="-610" width="120" height="60" as="geometry" />
        </mxCell>
        <mxCell id="JZUVJAfpR1LHdVZTG2FE-52" value="" style="rounded=1;whiteSpace=wrap;html=1;" vertex="1" parent="1">
          <mxGeometry x="730" y="-610" width="120" height="60" as="geometry" />
        </mxCell>
        <mxCell id="JZUVJAfpR1LHdVZTG2FE-53" value="&lt;font style=&quot;font-size: 14px;&quot;&gt;&lt;font style=&quot;&quot;&gt;&lt;b style=&quot;&quot;&gt;Database&lt;/b&gt;&lt;/font&gt;:&lt;/font&gt;&lt;div&gt;&lt;font style=&quot;font-size: 14px;&quot;&gt;Users,Items&lt;/font&gt;&lt;/div&gt;" style="text;html=1;align=center;verticalAlign=middle;whiteSpace=wrap;rounded=0;" vertex="1" parent="1">
          <mxGeometry y="-610" width="140" height="60" as="geometry" />
        </mxCell>
        <mxCell id="JZUVJAfpR1LHdVZTG2FE-54" value="&lt;font style=&quot;font-size: 14px;&quot;&gt;&lt;b&gt;Database&lt;/b&gt;:&lt;/font&gt;&lt;div&gt;&lt;span style=&quot;font-size: 14px;&quot;&gt;Auctions,Bids&lt;/span&gt;&lt;/div&gt;" style="text;html=1;align=center;verticalAlign=middle;whiteSpace=wrap;rounded=0;" vertex="1" parent="1">
          <mxGeometry x="270" y="-595" width="70" height="35" as="geometry" />
        </mxCell>
        <mxCell id="JZUVJAfpR1LHdVZTG2FE-55" value="&lt;font style=&quot;font-size: 14px;&quot;&gt;&lt;b&gt;Database&lt;/b&gt;:&lt;/font&gt;&lt;div&gt;&lt;span style=&quot;font-size: 14px;&quot;&gt;Transactions&lt;/span&gt;&lt;/div&gt;" style="text;html=1;align=center;verticalAlign=middle;whiteSpace=wrap;rounded=0;" vertex="1" parent="1">
          <mxGeometry x="535" y="-595" width="60" height="30" as="geometry" />
        </mxCell>
        <mxCell id="JZUVJAfpR1LHdVZTG2FE-56" value="&lt;font style=&quot;font-size: 14px;&quot;&gt;&lt;b&gt;Database&lt;/b&gt;:&lt;/font&gt;&lt;div&gt;&lt;span style=&quot;font-size: 14px;&quot;&gt;Messages,Logs&lt;/span&gt;&lt;/div&gt;" style="text;html=1;align=center;verticalAlign=middle;whiteSpace=wrap;rounded=0;" vertex="1" parent="1">
          <mxGeometry x="760" y="-600" width="60" height="30" as="geometry" />
        </mxCell>
        <mxCell id="JZUVJAfpR1LHdVZTG2FE-57" style="edgeStyle=orthogonalEdgeStyle;rounded=0;orthogonalLoop=1;jettySize=auto;html=1;exitX=0.25;exitY=1;exitDx=0;exitDy=0;entryX=0;entryY=0.75;entryDx=0;entryDy=0;" edge="1" parent="1" source="JZUVJAfpR1LHdVZTG2FE-39" target="JZUVJAfpR1LHdVZTG2FE-39">
          <mxGeometry relative="1" as="geometry" />
        </mxCell>
        <mxCell id="JZUVJAfpR1LHdVZTG2FE-58" style="edgeStyle=orthogonalEdgeStyle;rounded=0;orthogonalLoop=1;jettySize=auto;html=1;exitX=0.5;exitY=1;exitDx=0;exitDy=0;entryX=0.571;entryY=0;entryDx=0;entryDy=0;entryPerimeter=0;" edge="1" parent="1" source="JZUVJAfpR1LHdVZTG2FE-35" target="JZUVJAfpR1LHdVZTG2FE-53">
          <mxGeometry relative="1" as="geometry" />
        </mxCell>
        <mxCell id="JZUVJAfpR1LHdVZTG2FE-59" style="edgeStyle=orthogonalEdgeStyle;rounded=0;orthogonalLoop=1;jettySize=auto;html=1;exitX=0.5;exitY=1;exitDx=0;exitDy=0;entryX=0.58;entryY=0.06;entryDx=0;entryDy=0;entryPerimeter=0;" edge="1" parent="1" source="JZUVJAfpR1LHdVZTG2FE-36" target="JZUVJAfpR1LHdVZTG2FE-50">
          <mxGeometry relative="1" as="geometry" />
        </mxCell>
        <mxCell id="JZUVJAfpR1LHdVZTG2FE-62" style="edgeStyle=orthogonalEdgeStyle;rounded=0;orthogonalLoop=1;jettySize=auto;html=1;exitX=0.5;exitY=1;exitDx=0;exitDy=0;" edge="1" parent="1" source="JZUVJAfpR1LHdVZTG2FE-41">
          <mxGeometry relative="1" as="geometry">
            <mxPoint x="560" y="-610" as="targetPoint" />
          </mxGeometry>
        </mxCell>
        <mxCell id="JZUVJAfpR1LHdVZTG2FE-64" style="edgeStyle=orthogonalEdgeStyle;rounded=0;orthogonalLoop=1;jettySize=auto;html=1;entryX=0.34;entryY=-0.007;entryDx=0;entryDy=0;entryPerimeter=0;" edge="1" parent="1" target="JZUVJAfpR1LHdVZTG2FE-52">
          <mxGeometry relative="1" as="geometry">
            <mxPoint x="770" y="-690" as="sourcePoint" />
            <Array as="points">
              <mxPoint x="770" y="-660" />
            </Array>
          </mxGeometry>
        </mxCell>
        <mxCell id="JZUVJAfpR1LHdVZTG2FE-66" value="" style="rounded=1;whiteSpace=wrap;html=1;" vertex="1" parent="1">
          <mxGeometry x="250" y="-490" width="380" height="60" as="geometry" />
        </mxCell>
        <mxCell id="JZUVJAfpR1LHdVZTG2FE-67" value="" style="rounded=1;whiteSpace=wrap;html=1;" vertex="1" parent="1">
          <mxGeometry x="250" y="-270" width="380" height="60" as="geometry" />
        </mxCell>
        <mxCell id="JZUVJAfpR1LHdVZTG2FE-68" value="" style="rounded=1;whiteSpace=wrap;html=1;" vertex="1" parent="1">
          <mxGeometry x="250" y="-380" width="380" height="60" as="geometry" />
        </mxCell>
        <mxCell id="JZUVJAfpR1LHdVZTG2FE-69" value="&lt;font style=&quot;font-size: 18px;&quot;&gt;Event Driven Messaging&lt;/font&gt;&lt;div&gt;&lt;font size=&quot;3&quot;&gt;(Kafka,rabbitMQ)&lt;/font&gt;&lt;/div&gt;" style="text;html=1;align=center;verticalAlign=middle;whiteSpace=wrap;rounded=0;" vertex="1" parent="1">
          <mxGeometry x="280" y="-475" width="330" height="30" as="geometry" />
        </mxCell>
        <mxCell id="JZUVJAfpR1LHdVZTG2FE-70" value="&lt;font style=&quot;font-size: 18px;&quot;&gt;Cloud Storage&lt;/font&gt;&lt;div&gt;&lt;font size=&quot;3&quot;&gt;(Images,Documents)&lt;/font&gt;&lt;/div&gt;" style="text;html=1;align=center;verticalAlign=middle;whiteSpace=wrap;rounded=0;" vertex="1" parent="1">
          <mxGeometry x="280" y="-380" width="320" height="45" as="geometry" />
        </mxCell>
        <mxCell id="JZUVJAfpR1LHdVZTG2FE-71" value="&lt;font style=&quot;font-size: 18px;&quot;&gt;Search Service&lt;/font&gt;&lt;div&gt;&lt;font size=&quot;3&quot;&gt;(Elastic Search)&lt;/font&gt;&lt;/div&gt;" style="text;html=1;align=center;verticalAlign=middle;whiteSpace=wrap;rounded=0;" vertex="1" parent="1">
          <mxGeometry x="260" y="-255" width="340" height="30" as="geometry" />
        </mxCell>
      </root>
    </mxGraphModel>
  </diagram>
</mxfile>
